<svg xmlns="http://www.w3.org/2000/svg" version="1.1" xmlns:xlink="http://www.w3.org/1999/xlink" xmlns:svgjs="http://svgjs.dev/svgjs" width="1500" height="1500" viewBox="0 0 1500 1500"><rect width="1500" height="1500" fill="#ffffff"></rect><g transform="matrix(0.6666666666666666,0,0,0.6666666666666666,249.39393939393938,477.0012108073092)"><svg viewBox="0 0 396 216" data-background-color="#1d366f" preserveAspectRatio="xMidYMid meet" height="818" width="1500" xmlns="http://www.w3.org/2000/svg" xmlns:xlink="http://www.w3.org/1999/xlink"><g id="tight-bounds" transform="matrix(1,0,0,1,0.2400000000000091,0.1315497535841672)"><svg viewBox="0 0 395.52 215.73690049283167" height="215.73690049283167" width="395.52"><g><svg viewBox="0 0 395.52 215.73690049283167" height="215.73690049283167" width="395.52"><g transform="matrix(1,0,0,1,0,130.15727937111717)"><svg viewBox="0 0 395.52 85.5796211217145" height="85.5796211217145" width="395.52"><g id="textblocktransform"><svg viewBox="0 0 395.52 85.5796211217145" height="85.5796211217145" width="395.52" id="textblock"><g><svg viewBox="0 0 395.52 50.34922220347561" height="50.34922220347561" width="395.52"><g transform="matrix(1,0,0,1,0,0)"><svg width="395.52" viewBox="-1.22 -36.18 287.87 36.839999999999996" height="50.34922220347561" data-palette-color="#ffffff"><g class="wordmark-text-0" data-fill-palette-color="primary" id="text-0"><path d="M13.96 0L13.96 0Q8.06 0 8.06-2.2L8.06-2.2Q8.06-2.81 9.08-2.99 10.11-3.17 11.13-3.37 12.16-3.56 12.16-4.2L12.16-4.2 12.16-31.23 5-31.2Q3.81-31.2 2.82-28.49 1.83-25.78 0.68-25.78L0.68-25.78Q-1.22-25.78-1.22-28.03L-1.22-28.03Q-1.22-31.15-0.16-32.73 0.9-34.3 3.69-34.3L3.69-34.3 17.9-34.3Q25.63-34.3 27.51-34.25L27.51-34.25Q30.03-34.13 30.66-30L30.66-30Q30.83-28.98 30.83-27.88L30.83-27.88Q30.83-25.78 28.93-25.78L28.93-25.78Q27.69-25.78 26.86-28.49L26.86-28.49Q26.54-29.52 25.95-30.36 25.37-31.2 24.61-31.2L24.61-31.2 17.46-31.23 17.46-4.2Q17.46-3.49 19.54-3.14 21.63-2.78 21.63-2.2L21.63-2.2Q21.63-1.34 21.2-1.03 20.78-0.71 20.48-0.54 20.19-0.37 19.64-0.27 19.09-0.17 18.7-0.11 18.31-0.05 17.6-0.02 16.89 0 16.5 0L16.5 0Q15.23 0 13.96 0ZM38.01-20.46L38.01-10.57Q38.01-7.23 38.55-5.85 39.08-4.47 39.77-3.88L39.77-3.88Q41.18-2.66 44.49-2.66 47.8-2.66 49.34-4.36 50.88-6.05 50.88-10.03L50.88-10.03 50.88-18.29Q50.88-20.09 49.09-20.21L49.09-20.21Q47.68-20.29 47.53-20.52 47.39-20.75 47.39-21.04L47.39-21.04Q47.39-22.27 48.81-22.9 50.24-23.54 52.21-23.54 54.17-23.54 54.87-23 55.56-22.46 55.56-20.46L55.56-20.46 55.59-4.83Q55.59-3.17 57.35-3.05L57.35-3.05Q58.59-2.98 58.86-2.8 59.13-2.61 59.13-1.94 59.13-1.27 58.32-0.71L58.32-0.71Q56.88 0.27 54.58 0.27 52.27 0.27 51.72-0.43 51.17-1.12 51.17-3.64L51.17-3.64Q48.22 0.66 42.14 0.66L42.14 0.66Q37.33 0.66 35.31-1.93 33.3-4.52 33.3-9.91L33.3-9.91 33.3-18.29Q33.3-20.09 31.56-20.21L31.56-20.21Q30.12-20.29 29.98-20.52 29.83-20.75 29.83-21.04L29.83-21.04Q29.83-22.27 31.25-22.9 32.66-23.54 34.63-23.54 36.59-23.54 37.3-23 38.01-22.46 38.01-20.46L38.01-20.46ZM69.01 0L69.01 0 66.91 0.02Q63.72 0.02 62.96-0.95L62.96-0.95Q62.62-1.39 62.62-2.01 62.62-2.64 63.11-2.88 63.59-3.13 64.19-3.15 64.79-3.17 65.28-3.53 65.77-3.88 65.77-4.66L65.77-4.66 65.77-18.6Q65.77-20.02 64.01-20.31L64.01-20.31Q62.79-20.51 62.53-20.74 62.28-20.97 62.28-21.57 62.28-22.17 63.13-22.66L63.13-22.66Q64.57-23.54 66.76-23.54 68.94-23.54 69.56-22.91 70.19-22.29 70.19-20.14L70.19-20.14Q73.53-23.93 79.39-23.93L79.39-23.93Q84.15-23.93 86.14-21.33 88.13-18.73 88.13-13.45L88.13-13.45 88.13-4.66Q88.13-3.25 89.7-3.16 91.28-3.08 91.28-1.9L91.28-1.9Q91.28-0.59 89.77-0.24L89.77-0.24Q88.64 0 86.66 0L86.66 0 84.57 0.02Q81.37 0.02 80.61-0.95L80.61-0.95Q80.27-1.39 80.27-2.01 80.27-2.64 80.76-2.88 81.25-3.13 81.84-3.15 82.44-3.17 82.93-3.53 83.42-3.88 83.42-4.66L83.42-4.66 83.42-11.77Q83.42-16.31 82.37-18.41L82.37-18.41Q81.2-20.78 77.66-20.78L77.66-20.78Q73.38-20.78 71.85-18.51L71.85-18.51Q70.41-16.36 70.41-11.65L70.41-11.65 70.41-4.66Q70.41-3.25 71.98-3.16 73.55-3.08 73.55-1.9L73.55-1.9Q73.55-0.56 72.07-0.24L72.07-0.24Q70.99 0 69.01 0ZM96.88-2.66Q93.5-5.98 93.5-11.47 93.5-16.97 96.9-20.4 100.31-23.83 105.58-23.83L105.58-23.83Q109.76-23.83 112.63-21.13 115.5-18.43 115.5-14.36L115.5-14.36Q115.5-12.38 112.37-12.38L112.37-12.38 98.23-12.38Q98.28-8.42 100.8-5.71 103.31-3 107.15-3L107.15-3Q109.68-3 112.08-4.49L112.08-4.49Q113.35-5.27 113.7-5.27 114.06-5.27 114.51-4.92 114.96-4.57 114.96-4.05L114.96-4.05Q114.96-2.71 113.24-1.57 111.52-0.44 109.44 0.11 107.37 0.66 105.8 0.66L105.8 0.66Q100.26 0.66 96.88-2.66ZM111-14.94L111-14.94Q110.95-17.75 109.54-19.51 108.12-21.26 105.4-21.26 102.68-21.26 100.64-19.31 98.6-17.36 98.48-14.84L98.48-14.84 104.19-14.84Q108-14.84 111-14.94Z" fill="#000000" data-fill-palette-color="primary"></path><path d="M138.5 0L138.5 0Q132.59 0 132.59-2.2L132.59-2.2Q132.59-2.81 133.61-2.99 134.64-3.17 135.66-3.37 136.69-3.56 136.69-4.2L136.69-4.2 136.69-31.23 129.54-31.2Q128.34-31.2 127.35-28.49 126.36-25.78 125.21-25.78L125.21-25.78Q123.31-25.78 123.31-28.03L123.31-28.03Q123.31-31.15 124.37-32.73 125.43-34.3 128.22-34.3L128.22-34.3 142.43-34.3Q150.17-34.3 152.05-34.25L152.05-34.25Q154.56-34.13 155.19-30L155.19-30Q155.37-28.98 155.37-27.88L155.37-27.88Q155.37-25.78 153.46-25.78L153.46-25.78Q152.22-25.78 151.39-28.49L151.39-28.49Q151.07-29.52 150.48-30.36 149.9-31.2 149.14-31.2L149.14-31.2 141.99-31.23 141.99-4.2Q141.99-3.49 144.07-3.14 146.16-2.78 146.16-2.2L146.16-2.2Q146.16-1.34 145.73-1.03 145.31-0.71 145.01-0.54 144.72-0.37 144.17-0.27 143.62-0.17 143.23-0.11 142.84-0.05 142.13-0.02 141.43 0 141.03 0L141.03 0Q139.77 0 138.5 0ZM162.54-20.46L162.54-10.57Q162.54-7.23 163.08-5.85 163.62-4.47 164.3-3.88L164.3-3.88Q165.71-2.66 169.02-2.66 172.33-2.66 173.87-4.36 175.41-6.05 175.41-10.03L175.41-10.03 175.41-18.29Q175.41-20.09 173.62-20.21L173.62-20.21Q172.21-20.29 172.06-20.52 171.92-20.75 171.92-21.04L171.92-21.04Q171.92-22.27 173.34-22.9 174.77-23.54 176.74-23.54 178.7-23.54 179.4-23 180.09-22.46 180.09-20.46L180.09-20.46 180.12-4.83Q180.12-3.17 181.88-3.05L181.88-3.05Q183.12-2.98 183.39-2.8 183.66-2.61 183.66-1.94 183.66-1.27 182.85-0.71L182.85-0.71Q181.41 0.27 179.11 0.27 176.8 0.27 176.25-0.43 175.7-1.12 175.7-3.64L175.7-3.64Q172.75 0.66 166.67 0.66L166.67 0.66Q161.86 0.66 159.84-1.93 157.83-4.52 157.83-9.91L157.83-9.91 157.83-18.29Q157.83-20.09 156.1-20.21L156.1-20.21Q154.66-20.29 154.51-20.52 154.36-20.75 154.36-21.04L154.36-21.04Q154.36-22.27 155.78-22.9 157.19-23.54 159.16-23.54 161.12-23.54 161.83-23 162.54-22.46 162.54-20.46L162.54-20.46ZM193.54 0L193.54 0 191.44 0.02Q188.25 0.02 187.49-0.95L187.49-0.95Q187.15-1.39 187.15-2.01 187.15-2.64 187.64-2.88 188.12-3.13 188.72-3.15 189.32-3.17 189.81-3.53 190.3-3.88 190.3-4.66L190.3-4.66 190.3-18.6Q190.3-20.02 188.54-20.31L188.54-20.31Q187.32-20.51 187.06-20.74 186.81-20.97 186.81-21.57 186.81-22.17 187.66-22.66L187.66-22.66Q189.1-23.54 191.29-23.54 193.47-23.54 194.09-22.91 194.72-22.29 194.72-20.14L194.72-20.14Q198.06-23.93 203.92-23.93L203.92-23.93Q208.68-23.93 210.67-21.33 212.66-18.73 212.66-13.45L212.66-13.45 212.66-4.66Q212.66-3.25 214.24-3.16 215.81-3.08 215.81-1.9L215.81-1.9Q215.81-0.59 214.3-0.24L214.3-0.24Q213.17 0 211.2 0L211.2 0 209.1 0.02Q205.9 0.02 205.14-0.95L205.14-0.95Q204.8-1.39 204.8-2.01 204.8-2.64 205.29-2.88 205.78-3.13 206.37-3.15 206.97-3.17 207.46-3.53 207.95-3.88 207.95-4.66L207.95-4.66 207.95-11.77Q207.95-16.31 206.9-18.41L206.9-18.41Q205.73-20.78 202.19-20.78L202.19-20.78Q197.91-20.78 196.38-18.51L196.38-18.51Q194.94-16.36 194.94-11.65L194.94-11.65 194.94-4.66Q194.94-3.25 196.51-3.16 198.09-3.08 198.09-1.9L198.09-1.9Q198.09-0.56 196.6-0.24L196.6-0.24Q195.52 0 193.54 0ZM225.67 0L225.67 0 223.57 0.02Q220.37 0.02 219.62-0.95L219.62-0.95Q219.27-1.39 219.27-2.01 219.27-2.64 219.76-2.88 220.25-3.13 220.85-3.15 221.45-3.17 221.94-3.53 222.42-3.88 222.42-4.66L222.42-4.66 222.42-18.6Q222.42-20.02 220.67-20.31L220.67-20.31Q219.45-20.51 219.19-20.74 218.93-20.97 218.93-21.57 218.93-22.17 219.79-22.66L219.79-22.66Q221.23-23.54 223.41-23.54 225.6-23.54 226.22-22.91 226.84-22.29 226.84-20.14L226.84-20.14Q230.19-23.93 236.05-23.93L236.05-23.93Q240.81-23.93 242.8-21.33 244.79-18.73 244.79-13.45L244.79-13.45 244.79-4.66Q244.79-3.25 246.36-3.16 247.94-3.08 247.94-1.9L247.94-1.9Q247.94-0.59 246.42-0.24L246.42-0.24Q245.3 0 243.32 0L243.32 0 241.22 0.02Q238.02 0.02 237.27-0.95L237.27-0.95Q236.93-1.39 236.93-2.01 236.93-2.64 237.41-2.88 237.9-3.13 238.5-3.15 239.1-3.17 239.59-3.53 240.07-3.88 240.07-4.66L240.07-4.66 240.07-11.77Q240.07-16.31 239.03-18.41L239.03-18.41Q237.85-20.78 234.31-20.78L234.31-20.78Q230.04-20.78 228.5-18.51L228.5-18.51Q227.06-16.36 227.06-11.65L227.06-11.65 227.06-4.66Q227.06-3.25 228.64-3.16 230.21-3.08 230.21-1.9L230.21-1.9Q230.21-0.56 228.72-0.24L228.72-0.24Q227.65 0 225.67 0ZM253.54-2.66Q250.16-5.98 250.16-11.47 250.16-16.97 253.56-20.4 256.97-23.83 262.24-23.83L262.24-23.83Q266.42-23.83 269.28-21.13 272.15-18.43 272.15-14.36L272.15-14.36Q272.15-12.38 269.03-12.38L269.03-12.38 254.89-12.38Q254.94-8.42 257.46-5.71 259.97-3 263.8-3L263.8-3Q266.34-3 268.73-4.49L268.73-4.49Q270-5.27 270.36-5.27 270.71-5.27 271.16-4.92 271.62-4.57 271.62-4.05L271.62-4.05Q271.62-2.71 269.89-1.57 268.17-0.44 266.1 0.11 264.02 0.66 262.46 0.66L262.46 0.66Q256.92 0.66 253.54-2.66ZM267.66-14.94L267.66-14.94Q267.61-17.75 266.2-19.51 264.78-21.26 262.06-21.26 259.34-21.26 257.3-19.31 255.26-17.36 255.14-14.84L255.14-14.84 260.85-14.84Q264.66-14.84 267.66-14.94ZM282.11 0L282.11 0 280.01 0.02Q276.81 0.02 276.06-0.95L276.06-0.95Q275.71-1.39 275.71-2.01 275.71-2.64 276.2-2.88 276.69-3.13 277.28-3.15 277.86-3.17 278.35-3.53 278.84-3.88 278.84-4.66L278.84-4.66 278.84-30.44Q278.84-32.67 277.08-32.84L277.08-32.84Q276.91-32.86 276.64-32.89 276.37-32.91 276.25-32.92 276.13-32.93 275.95-32.97 275.76-33.01 275.68-33.06 275.59-33.11 275.52-33.18L275.52-33.18Q275.35-33.33 275.35-33.89 275.35-34.45 276.11-35.06L276.11-35.06Q277.47-36.18 279.79-36.18L279.79-36.18Q282.26-36.18 282.67-35.89L282.67-35.89Q283.5-35.3 283.5-34.35L283.5-34.35 283.5-4.66Q283.5-3.25 285.08-3.16 286.65-3.08 286.65-1.9L286.65-1.9Q286.65-0.56 285.19-0.24L285.19-0.24Q284.06 0 282.11 0Z" fill="#000000" data-fill-palette-color="secondary"></path></g></svg></g></svg></g><g transform="matrix(1,0,0,1,75.54431999999998,62.23546518438332)"><svg viewBox="0 0 244.43136 23.344155937331173" height="23.344155937331173" width="244.43136"><g transform="matrix(1,0,0,1,0,0)"><svg width="244.43136" viewBox="4.96 -38.35 406.67 38.84" height="23.344155937331173" data-palette-color="#08c076"><path d="M9.69 0L4.96 0 4.96-35.55 28.56-35.55 28.32-31.91 9.69-31.91 9.69-19.56 25.59-19.56 25.59-16.09 9.69-16.09 9.69 0ZM37.99 0L33.57 0 33.57-26.42 37.16-26.42 37.6-20.92Q38.96-24.19 40.96-25.46 42.97-26.73 45.21-26.73L45.21-26.73Q45.75-26.73 46.21-26.71 46.68-26.68 47.14-26.61L47.14-26.61 46.8-23.1Q46.56-23.1 46.31-23.11 46.07-23.12 45.8-23.12L45.8-23.12Q43.16-23.12 41.43-22.02 39.69-20.92 38.84-19.08 37.99-17.24 37.99-14.99L37.99-14.99 37.99 0ZM63.57 0.49L63.57 0.49Q60 0.49 57.14-1.15 54.27-2.78 52.6-5.85 50.92-8.91 50.92-13.13L50.92-13.13Q50.92-17.53 52.56-20.63 54.19-23.73 56.95-25.37 59.71-27 63.03-27L63.03-27Q66.28-27 68.57-25.56 70.87-24.12 72.1-21.46 73.33-18.8 73.33-15.14L73.33-15.14Q73.33-14.77 73.27-14.14 73.21-13.5 73.16-12.99 73.12-12.48 73.12-12.43L73.12-12.43 55.46-12.43Q55.66-9.06 56.82-6.93 57.98-4.81 59.87-3.81 61.76-2.81 64.13-2.81L64.13-2.81Q66.4-2.81 68.01-3.45 69.62-4.1 71.26-5.03L71.26-5.03 71.58-5.03 72.6-2.12Q70.97-1 68.66-0.26 66.35 0.49 63.57 0.49ZM55.54-15.31L55.54-15.31 69.53-15.31Q69.48-19.29 67.95-21.5 66.43-23.71 63.25-23.71L63.25-23.71Q60.05-23.71 57.97-21.45 55.88-19.19 55.54-15.31ZM91.47 0.49L91.47 0.49Q87.91 0.49 85.04-1.15 82.17-2.78 80.5-5.85 78.83-8.91 78.83-13.13L78.83-13.13Q78.83-17.53 80.46-20.63 82.1-23.73 84.86-25.37 87.61-27 90.93-27L90.93-27Q94.18-27 96.48-25.56 98.77-24.12 100-21.46 101.24-18.8 101.24-15.14L101.24-15.14Q101.24-14.77 101.18-14.14 101.12-13.5 101.07-12.99 101.02-12.48 101.02-12.43L101.02-12.43 83.37-12.43Q83.56-9.06 84.72-6.93 85.88-4.81 87.77-3.81 89.67-2.81 92.03-2.81L92.03-2.81Q94.3-2.81 95.92-3.45 97.53-4.1 99.16-5.03L99.16-5.03 99.48-5.03 100.51-2.12Q98.87-1 96.56-0.26 94.26 0.49 91.47 0.49ZM83.44-15.31L83.44-15.31 97.43-15.31Q97.38-19.29 95.85-21.5 94.33-23.71 91.15-23.71L91.15-23.71Q87.96-23.71 85.87-21.45 83.78-19.19 83.44-15.31ZM118.06 0.49L118.06 0.49Q114.35 0.49 111.81-1.26 109.27-3 107.97-6.1 106.68-9.2 106.68-13.28L106.68-13.28Q106.68-17.41 108.03-20.47 109.39-23.54 111.94-25.23 114.49-26.93 118.03-26.93L118.03-26.93Q120.57-26.93 122.32-26.17 124.06-25.42 125.19-24.22L125.19-24.22 125.06-28.15 125.06-37.6 129.65-38.09 129.65 0 125.82 0 125.58-2.88Q124.14-1.17 122.1-0.34 120.06 0.49 118.06 0.49ZM118.52-2.81L118.52-2.81Q120.6-2.81 122.32-3.5 124.04-4.2 125.21-5.62L125.21-5.62 125.21-20.63Q124.18-22.12 122.41-22.9 120.64-23.68 118.5-23.68L118.5-23.68Q116.66-23.68 115.31-22.99 113.95-22.29 113.05-20.96 112.15-19.63 111.7-17.71 111.24-15.8 111.24-13.35L111.24-13.35Q111.24-10.03 112.03-7.68 112.81-5.32 114.43-4.06 116.05-2.81 118.52-2.81ZM148.69 0.49L148.69 0.49Q144.86 0.49 142.19-1.23 139.51-2.95 138.12-6.04 136.73-9.13 136.73-13.23L136.73-13.23Q136.73-17.43 138.1-20.52 139.47-23.61 142.14-25.31 144.81-27 148.69-27L148.69-27Q152.58-27 155.24-25.31 157.9-23.61 159.26-20.52 160.63-17.43 160.63-13.23L160.63-13.23Q160.63-9.13 159.24-6.04 157.85-2.95 155.19-1.23 152.53 0.49 148.69 0.49ZM148.69-2.81L148.69-2.81Q151.28-2.81 152.9-4.16 154.53-5.52 155.3-7.86 156.07-10.21 156.07-13.21L156.07-13.21Q156.07-16.28 155.3-18.64 154.53-21 152.89-22.34 151.26-23.68 148.69-23.68L148.69-23.68Q144.84-23.68 143.07-20.75 141.3-17.82 141.3-13.21L141.3-13.21Q141.3-10.21 142.07-7.86 142.83-5.52 144.47-4.16 146.11-2.81 148.69-2.81ZM171.96 0L167.51 0 167.51-26.42 171.23-26.42 171.69-21.24Q172.91-24.27 175.03-25.63 177.16-27 179.75-27L179.75-27Q181.77-27 183.33-26.25 184.9-25.49 185.95-24.1 187-22.71 187.49-20.78L187.49-20.78Q188.78-23.97 191.06-25.49 193.34-27 196.18-27L196.18-27Q200.25-27 202.43-24.45 204.6-21.9 204.6-17.02L204.6-17.02 204.6 0 200.18 0 200.18-15.72Q200.18-17.65 199.84-19.48 199.5-21.31 198.46-22.5 197.42-23.68 195.32-23.68L195.32-23.68Q193.69-23.68 192.06-22.62 190.44-21.56 189.36-19.52 188.29-17.48 188.29-14.55L188.29-14.55 188.29 0 183.85 0 183.85-14.89Q183.85-17.94 183.35-19.89 182.85-21.83 181.75-22.75 180.65-23.68 178.87-23.68L178.87-23.68Q176.89-23.68 175.45-22.62 174.01-21.56 173.13-19.73 172.25-17.9 171.96-15.58L171.96-15.58 171.96 0ZM230.13 0L225.69 0 225.69-26.42 230.13-26.42 230.13 0ZM227.91-32.47L227.91-32.47Q226.42-32.47 225.61-33.25 224.81-34.03 224.81-35.45L224.81-35.45Q224.81-36.82 225.61-37.59 226.42-38.35 227.91-38.35L227.91-38.35Q229.4-38.35 230.2-37.59 231.01-36.82 231.01-35.45L231.01-35.45Q231.01-34.03 230.2-33.25 229.4-32.47 227.91-32.47ZM242.53 0L238.09 0 238.09-26.42 241.77-26.42 242.24-21.26Q243.46-24.19 245.69-25.6 247.93-27 251.15-27L251.15-27Q255.62-27 257.72-24.13 259.82-21.26 259.82-15.92L259.82-15.92 259.82 0 255.4 0 255.4-16.24Q255.4-18.48 254.93-20.15 254.47-21.83 253.35-22.75 252.22-23.68 250.22-23.68L250.22-23.68Q248.17-23.68 246.72-23 245.27-22.31 244.34-21.11 243.41-19.9 242.97-18.31 242.53-16.72 242.53-14.94L242.53-14.94 242.53 0ZM285.37 0.02L280.91 0.02 280.91-11.84 281.49-35.55 287.13-35.55 298.63-9.67 310.2-35.55 315.7-35.55 316.28-11.87 316.28 0.02 311.84 0.02 311.84-11.77 311.64-29.13 300.51-4.22 296.65-4.22 285.59-29.37 285.37-11.69 285.37 0.02ZM334 0.49L334 0.49Q329.32 0.49 326.91-2.1 324.51-4.69 324.51-9.86L324.51-9.86 324.51-26.42 328.95-26.42 328.95-9.96Q328.95-7.69 329.5-6.08 330.05-4.47 331.29-3.61 332.54-2.76 334.61-2.76L334.61-2.76Q336.71-2.76 338.14-3.38 339.57-4 340.49-4.83 341.4-5.66 341.89-6.32L341.89-6.32 341.89-26.42 346.31-26.42 346.31 0 342.47 0 342.23-3.3Q340.91-1.64 338.91-0.57 336.91 0.49 334 0.49ZM362.69 0.49L362.69 0.49Q359.51 0.49 356.79-0.57 354.07-1.64 352.43-3.69L352.43-3.69 354.75-5.93 355.09-5.93Q356.68-4.1 358.76-3.42 360.83-2.73 362.69-2.73L362.69-2.73Q365.23-2.73 366.62-3.91 368.01-5.08 368.01-7.5L368.01-7.5Q368.01-8.35 367.69-9.05 367.37-9.74 366.4-10.36 365.42-10.99 363.4-11.62L363.4-11.62 360.42-12.55Q357.22-13.55 355.68-14.65 354.14-15.75 353.67-17.04 353.19-18.33 353.19-19.9L353.19-19.9Q353.19-23.19 355.77-25.1 358.34-27 362.76-27L362.76-27Q364.91-27 366.59-26.5 368.28-26 369.52-25.13 370.77-24.27 371.55-23.14L371.55-23.14 369.13-21.17 368.89-21.17Q367.99-22.24 366.45-22.95 364.91-23.66 362.78-23.66L362.78-23.66Q360.93-23.66 359.78-23.21 358.63-22.75 358.1-21.9 357.56-21.04 357.56-19.87L357.56-19.87Q357.56-18.53 358.35-17.72 359.15-16.92 361.86-16.06L361.86-16.06 364.79-15.14Q367.96-14.11 369.51-12.94 371.06-11.77 371.56-10.46 372.06-9.16 372.06-7.67L372.06-7.67Q372.06-4.79 370.79-2.99 369.52-1.2 367.4-0.35 365.28 0.49 362.69 0.49ZM383.27 0L378.82 0 378.82-26.42 383.27-26.42 383.27 0ZM381.04-32.47L381.04-32.47Q379.55-32.47 378.75-33.25 377.94-34.03 377.94-35.45L377.94-35.45Q377.94-36.82 378.75-37.59 379.55-38.35 381.04-38.35L381.04-38.35Q382.53-38.35 383.34-37.59 384.14-36.82 384.14-35.45L384.14-35.45Q384.14-34.03 383.34-33.25 382.53-32.47 381.04-32.47ZM402.11 0.49L402.11 0.49Q398.45 0.49 395.75-1.2 393.05-2.88 391.58-5.97 390.1-9.06 390.1-13.26L390.1-13.26Q390.1-17.48 391.58-20.56 393.05-23.63 395.75-25.32 398.45-27 402.11-27L402.11-27Q405.02-27 406.92-26.16 408.82-25.32 409.95-24.02 411.07-22.73 411.63-21.39L411.63-21.39 408.87-19.8 408.56-19.8Q407.65-21.46 406.22-22.56 404.8-23.66 402.31-23.66L402.31-23.66Q399.79-23.66 398.08-22.42 396.37-21.19 395.52-18.86 394.66-16.53 394.66-13.26L394.66-13.26Q394.66-10.01 395.52-7.68 396.37-5.35 398.07-4.1 399.77-2.86 402.31-2.86L402.31-2.86Q404.8-2.86 406.21-3.92 407.63-4.98 408.53-6.64L408.53-6.64 408.85-6.64 411.63-5.13Q411.07-3.78 409.95-2.49 408.82-1.2 406.92-0.35 405.02 0.49 402.11 0.49Z" opacity="1" transform="matrix(1,0,0,1,0,0)" fill="#000000" class="slogan-text-1" data-fill-palette-color="secondary" id="text-1"></path></svg></g></svg></g></svg></g></svg></g><g transform="matrix(1,0,0,1,137.64484523268823,0)"><svg viewBox="0 0 120.2303095346235 118.27103639020945" height="118.27103639020945" width="120.2303095346235"><g><svg xmlns="http://www.w3.org/2000/svg" xmlns:xlink="http://www.w3.org/1999/xlink" version="1.1" x="0" y="0" viewBox="0 3.248 95.054 93.505" enable-background="new 0 0 100 100" xml:space="preserve" height="118.27103639020945" width="120.2303095346235" class="icon-icon-0" data-fill-palette-color="accent" id="icon-0"><g fill="#08c076" data-fill-palette-color="accent"><path fill="none" d="M57 36.349v0.541c4.977 2.277 8.448 7.289 8.448 13.11S61.977 60.833 57 63.11v0.541c5.259-2.31 8.948-7.549 8.948-13.651C65.948 43.897 62.259 38.659 57 36.349z"></path><path fill="none" d="M63.698 50c0-4.837-2.715-9.029-6.698-11.166v22.331C60.984 59.03 63.698 54.837 63.698 50z"></path><path d="M57 6.38V4.248c0-0.552-0.447-1-1-1H1c-0.552 0-1 0.448-1 1s0.448 1 1 1h54v0.905 29.474 0.516 1.826 24.063 1.826 0.516 29.474 0.905H5.94c-0.552 0-1 0.447-1 1s0.448 1 1 1H56c0.553 0 1-0.447 1-1V93.62C78.489 90.701 95.054 72.29 95.054 50S78.489 9.299 57 6.38zM57 38.834c3.984 2.136 6.698 6.329 6.698 11.166S60.984 59.03 57 61.166V38.834zM57 63.651V63.11c4.977-2.277 8.448-7.289 8.448-13.11S61.977 39.167 57 36.89v-0.541c5.259 2.31 8.948 7.549 8.948 13.651C65.948 56.102 62.259 61.341 57 63.651z" fill="#000000" data-fill-palette-color="accent"></path></g></svg></g></svg></g><g></g></svg></g><defs></defs></svg><rect width="395.52" height="215.73690049283167" fill="none" stroke="none" visibility="hidden"></rect></g></svg></g></svg>